<svg xmlns="http://www.w3.org/2000/svg" xmlns:xlink="http://www.w3.org/1999/xlink" width="1080" zoomAndPan="magnify" viewBox="0 0 810 809.999993" height="1080" preserveAspectRatio="xMidYMid meet" version="1.0"><defs><clipPath id="6bf64518c0"><path d="M 17 372 L 793 372 L 793 520.195312 L 17 520.195312 Z M 17 372 " clip-rule="nonzero"/></clipPath><clipPath id="ce286554ce"><path d="M 37 289.945312 L 75 289.945312 L 75 343 L 37 343 Z M 37 289.945312 " clip-rule="nonzero"/></clipPath><clipPath id="30a79f1410"><path d="M 75 289.945312 L 127 289.945312 L 127 344 L 75 344 Z M 75 289.945312 " clip-rule="nonzero"/></clipPath><clipPath id="81c4145dda"><path d="M 128 289.945312 L 177 289.945312 L 177 344 L 128 344 Z M 128 289.945312 " clip-rule="nonzero"/></clipPath><clipPath id="255ea2f5c5"><path d="M 238 289.945312 L 249 289.945312 L 249 344 L 238 344 Z M 238 289.945312 " clip-rule="nonzero"/></clipPath><clipPath id="e51c7187a2"><path d="M 260 289.945312 L 304 289.945312 L 304 344 L 260 344 Z M 260 289.945312 " clip-rule="nonzero"/></clipPath><clipPath id="9c70fbd95b"><path d="M 312 289.945312 L 363 289.945312 L 363 344 L 312 344 Z M 312 289.945312 " clip-rule="nonzero"/></clipPath></defs><rect x="-81" width="972" fill="#ffffff" y="-80.999999" height="971.999992" fill-opacity="1"/><rect x="-81" width="972" fill="#faf7f5" y="-80.999999" height="971.999992" fill-opacity="1"/><g clip-path="url(#6bf64518c0)"><path fill="#000000" d="M 47.355469 490.136719 L 762.90625 490.136719 L 762.90625 402.921875 L 47.355469 402.921875 Z M 777.929688 520.199219 L 32.332031 520.199219 C 24.03125 520.199219 17.304688 513.472656 17.304688 505.164062 L 17.304688 387.890625 C 17.304688 379.589844 24.03125 372.859375 32.332031 372.859375 L 777.929688 372.859375 C 786.230469 372.859375 792.960938 379.589844 792.960938 387.890625 L 792.960938 505.164062 C 792.960938 513.472656 786.230469 520.199219 777.929688 520.199219 " fill-opacity="1" fill-rule="nonzero"/></g><g clip-path="url(#ce286554ce)"><path fill="#000000" d="M 48.214844 296.296875 L 48.214844 333.886719 L 69.414062 333.886719 C 71.105469 333.886719 72.402344 334.300781 73.308594 335.121094 C 74.210938 335.941406 74.664062 336.976562 74.664062 338.222656 C 74.664062 339.488281 74.214844 340.519531 73.324219 341.300781 C 72.433594 342.089844 71.128906 342.484375 69.414062 342.484375 L 44.164062 342.484375 C 41.886719 342.484375 40.25 341.980469 39.25 340.972656 C 38.25 339.957031 37.753906 338.328125 37.753906 336.070312 L 37.753906 296.296875 C 37.753906 294.1875 38.230469 292.597656 39.179688 291.542969 C 40.132812 290.484375 41.382812 289.957031 42.929688 289.957031 C 44.503906 289.957031 45.777344 290.476562 46.75 291.523438 C 47.726562 292.566406 48.214844 294.160156 48.214844 296.296875 " fill-opacity="1" fill-rule="nonzero"/></g><g clip-path="url(#30a79f1410)"><path fill="#000000" d="M 115.519531 316.519531 C 115.519531 312.738281 114.90625 309.457031 113.683594 306.6875 C 112.464844 303.917969 110.722656 301.820312 108.457031 300.402344 C 106.191406 298.980469 103.589844 298.269531 100.652344 298.269531 C 98.566406 298.269531 96.632812 298.660156 94.863281 299.449219 C 93.085938 300.238281 91.5625 301.382812 90.285156 302.886719 C 89.003906 304.386719 87.996094 306.3125 87.253906 308.644531 C 86.515625 310.984375 86.144531 313.609375 86.144531 316.519531 C 86.144531 319.453125 86.515625 322.105469 87.253906 324.484375 C 87.996094 326.855469 89.039062 328.820312 90.390625 330.382812 C 91.738281 331.945312 93.289062 333.113281 95.035156 333.886719 C 96.785156 334.664062 98.707031 335.054688 100.796875 335.054688 C 103.472656 335.054688 105.933594 334.382812 108.175781 333.046875 C 110.417969 331.699219 112.199219 329.640625 113.527344 326.84375 C 114.855469 324.046875 115.519531 320.605469 115.519531 316.519531 Z M 100.652344 289.957031 C 106.007812 289.957031 110.605469 291.042969 114.441406 293.214844 C 118.28125 295.386719 121.1875 298.476562 123.160156 302.480469 C 125.132812 306.488281 126.117188 311.1875 126.117188 316.589844 C 126.117188 320.585938 125.578125 324.210938 124.5 327.476562 C 123.417969 330.742188 121.796875 333.570312 119.636719 335.96875 C 117.476562 338.359375 114.824219 340.195312 111.679688 341.460938 C 108.53125 342.730469 104.925781 343.363281 100.867188 343.363281 C 96.828125 343.363281 93.210938 342.714844 90.019531 341.410156 C 86.824219 340.109375 84.160156 338.269531 82.023438 335.894531 C 79.886719 333.523438 78.273438 330.667969 77.179688 327.332031 C 76.089844 324 75.542969 320.398438 75.542969 316.519531 C 75.542969 312.550781 76.113281 308.910156 77.253906 305.597656 C 78.390625 302.285156 80.039062 299.464844 82.199219 297.144531 C 84.359375 294.820312 86.988281 293.042969 90.089844 291.804688 C 93.1875 290.574219 96.710938 289.957031 100.652344 289.957031 " fill-opacity="1" fill-rule="nonzero"/></g><g clip-path="url(#81c4145dda)"><path fill="#000000" d="M 144.644531 322.296875 L 160.070312 322.296875 L 152.285156 300.984375 Z M 165.351562 336.636719 L 162.886719 330.152344 L 141.898438 330.152344 L 139.433594 336.777344 C 138.46875 339.363281 137.648438 341.105469 136.964844 342.011719 C 136.285156 342.910156 135.167969 343.363281 133.621094 343.363281 C 132.304688 343.363281 131.140625 342.882812 130.132812 341.921875 C 129.125 340.953125 128.617188 339.863281 128.617188 338.644531 C 128.617188 337.941406 128.738281 337.210938 128.972656 336.460938 C 129.203125 335.707031 129.59375 334.664062 130.132812 333.320312 L 143.339844 299.785156 C 143.714844 298.820312 144.167969 297.664062 144.695312 296.316406 C 145.226562 294.964844 145.789062 293.84375 146.386719 292.949219 C 146.984375 292.0625 147.773438 291.335938 148.746094 290.78125 C 149.722656 290.230469 150.921875 289.957031 152.355469 289.957031 C 153.8125 289.957031 155.027344 290.230469 156 290.78125 C 156.976562 291.335938 157.761719 292.046875 158.359375 292.914062 C 158.960938 293.785156 159.464844 294.71875 159.875 295.714844 C 160.285156 296.71875 160.808594 298.046875 161.441406 299.714844 L 174.929688 333.046875 C 175.988281 335.578125 176.515625 337.421875 176.515625 338.574219 C 176.515625 339.773438 176.015625 340.871094 175.019531 341.867188 C 174.023438 342.863281 172.816406 343.363281 171.410156 343.363281 C 170.585938 343.363281 169.882812 343.21875 169.296875 342.925781 C 168.707031 342.628906 168.214844 342.234375 167.816406 341.726562 C 167.417969 341.222656 166.992188 340.441406 166.53125 339.402344 C 166.074219 338.355469 165.683594 337.433594 165.351562 336.636719 " fill-opacity="1" fill-rule="nonzero"/></g><path fill="#000000" d="M 194.726562 299.113281 L 194.726562 334.167969 L 202.648438 334.167969 C 204.386719 334.167969 205.746094 334.121094 206.734375 334.03125 C 207.71875 333.933594 208.742188 333.699219 209.796875 333.320312 C 210.855469 332.949219 211.769531 332.421875 212.546875 331.738281 C 216.042969 328.777344 217.792969 323.683594 217.792969 316.449219 C 217.792969 311.351562 217.023438 307.535156 215.484375 305 C 213.949219 302.464844 212.054688 300.84375 209.796875 300.152344 C 207.542969 299.460938 204.820312 299.113281 201.628906 299.113281 Z M 190.675781 290.835938 L 204.304688 290.835938 C 207.847656 290.835938 210.890625 291.164062 213.425781 291.820312 C 215.960938 292.480469 218.261719 293.710938 220.328125 295.523438 C 225.707031 300.125 228.394531 307.125 228.394531 316.519531 C 228.394531 319.617188 228.125 322.449219 227.582031 325.011719 C 227.042969 327.566406 226.210938 329.878906 225.085938 331.933594 C 223.957031 333.988281 222.511719 335.824219 220.75 337.445312 C 219.367188 338.691406 217.851562 339.6875 216.207031 340.4375 C 214.5625 341.191406 212.796875 341.722656 210.910156 342.027344 C 209.019531 342.332031 206.886719 342.484375 204.515625 342.484375 L 190.886719 342.484375 C 188.984375 342.484375 187.550781 342.199219 186.589844 341.621094 C 185.625 341.046875 184.996094 340.238281 184.703125 339.191406 C 184.410156 338.144531 184.261719 336.789062 184.261719 335.121094 L 184.261719 297.25 C 184.261719 294.996094 184.769531 293.359375 185.78125 292.351562 C 186.789062 291.339844 188.421875 290.835938 190.675781 290.835938 " fill-opacity="1" fill-rule="nonzero"/><g clip-path="url(#255ea2f5c5)"><path fill="#000000" d="M 238.007812 336.988281 L 238.007812 296.296875 C 238.007812 294.1875 238.488281 292.597656 239.453125 291.542969 C 240.414062 290.484375 241.660156 289.957031 243.183594 289.957031 C 244.757812 289.957031 246.035156 290.476562 247.007812 291.523438 C 247.980469 292.566406 248.46875 294.160156 248.46875 296.296875 L 248.46875 336.988281 C 248.46875 339.125 247.980469 340.722656 247.007812 341.78125 C 246.035156 342.835938 244.757812 343.363281 243.183594 343.363281 C 241.683594 343.363281 240.445312 342.828125 239.46875 341.761719 C 238.496094 340.695312 238.007812 339.101562 238.007812 336.988281 " fill-opacity="1" fill-rule="nonzero"/></g><g clip-path="url(#e51c7187a2)"><path fill="#000000" d="M 273.792969 296.226562 L 293.902344 326.667969 L 293.902344 295.945312 C 293.902344 293.945312 294.328125 292.453125 295.1875 291.453125 C 296.042969 290.457031 297.199219 289.957031 298.65625 289.957031 C 300.160156 289.957031 301.34375 290.457031 302.214844 291.453125 C 303.082031 292.453125 303.515625 293.945312 303.515625 295.945312 L 303.515625 336.566406 C 303.515625 341.097656 301.636719 343.363281 297.878906 343.363281 C 296.941406 343.363281 296.09375 343.230469 295.34375 342.960938 C 294.59375 342.691406 293.886719 342.261719 293.234375 341.675781 C 292.574219 341.089844 291.964844 340.402344 291.398438 339.613281 C 290.835938 338.824219 290.273438 338.019531 289.710938 337.199219 L 270.09375 307.113281 L 270.09375 337.375 C 270.09375 339.347656 269.636719 340.839844 268.71875 341.851562 C 267.804688 342.855469 266.628906 343.363281 265.199219 343.363281 C 263.71875 343.363281 262.53125 342.851562 261.640625 341.835938 C 260.746094 340.8125 260.300781 339.324219 260.300781 337.375 L 260.300781 297.53125 C 260.300781 295.839844 260.488281 294.511719 260.867188 293.546875 C 261.3125 292.492188 262.050781 291.628906 263.085938 290.957031 C 264.117188 290.292969 265.234375 289.957031 266.429688 289.957031 C 267.371094 289.957031 268.175781 290.113281 268.84375 290.414062 C 269.511719 290.71875 270.097656 291.128906 270.605469 291.644531 C 271.109375 292.160156 271.625 292.832031 272.15625 293.652344 C 272.679688 294.480469 273.226562 295.335938 273.792969 296.226562 " fill-opacity="1" fill-rule="nonzero"/></g><g clip-path="url(#9c70fbd95b)"><path fill="#000000" d="M 362.121094 321.488281 L 362.121094 331.386719 C 362.121094 332.703125 361.992188 333.753906 361.734375 334.542969 C 361.476562 335.324219 361 336.039062 360.304688 336.671875 C 359.613281 337.308594 358.726562 337.914062 357.648438 338.503906 C 354.523438 340.195312 351.519531 341.429688 348.628906 342.203125 C 345.742188 342.972656 342.597656 343.363281 339.191406 343.363281 C 335.226562 343.363281 331.609375 342.753906 328.34375 341.53125 C 325.082031 340.308594 322.300781 338.535156 320 336.214844 C 317.699219 333.886719 315.929688 331.066406 314.699219 327.757812 C 313.464844 324.445312 312.847656 320.75 312.847656 316.664062 C 312.847656 312.644531 313.449219 308.96875 314.644531 305.632812 C 315.84375 302.300781 317.605469 299.464844 319.929688 297.144531 C 322.25 294.820312 325.082031 293.042969 328.414062 291.804688 C 331.75 290.574219 335.53125 289.957031 339.753906 289.957031 C 343.230469 289.957031 346.308594 290.417969 348.984375 291.347656 C 351.660156 292.273438 353.832031 293.445312 355.5 294.851562 C 357.167969 296.261719 358.421875 297.753906 359.265625 299.328125 C 360.113281 300.898438 360.535156 302.300781 360.535156 303.519531 C 360.535156 304.835938 360.046875 305.953125 359.074219 306.878906 C 358.097656 307.8125 356.929688 308.277344 355.570312 308.277344 C 354.816406 308.277344 354.09375 308.101562 353.402344 307.746094 C 352.710938 307.390625 352.128906 306.902344 351.660156 306.269531 C 350.367188 304.25 349.277344 302.71875 348.386719 301.6875 C 347.492188 300.652344 346.289062 299.785156 344.777344 299.082031 C 343.261719 298.375 341.328125 298.023438 338.980469 298.023438 C 336.5625 298.023438 334.402344 298.441406 332.5 299.273438 C 330.601562 300.109375 328.972656 301.320312 327.625 302.902344 C 326.273438 304.488281 325.238281 306.433594 324.523438 308.734375 C 323.808594 311.035156 323.449219 313.582031 323.449219 316.378906 C 323.449219 322.4375 324.839844 327.101562 327.625 330.363281 C 330.40625 333.628906 334.285156 335.261719 339.261719 335.261719 C 341.679688 335.261719 343.953125 334.945312 346.078125 334.3125 C 348.203125 333.675781 350.355469 332.773438 352.539062 331.59375 L 352.539062 323.214844 L 344.441406 323.214844 C 342.492188 323.214844 341.019531 322.921875 340.019531 322.328125 C 339.019531 321.746094 338.523438 320.75 338.523438 319.335938 C 338.523438 318.1875 338.941406 317.238281 339.773438 316.488281 C 340.605469 315.734375 341.742188 315.355469 343.171875 315.355469 L 355.039062 315.355469 C 356.496094 315.355469 357.730469 315.484375 358.738281 315.746094 C 359.746094 316 360.5625 316.578125 361.183594 317.472656 C 361.808594 318.363281 362.121094 319.703125 362.121094 321.488281 " fill-opacity="1" fill-rule="nonzero"/></g><path fill="#000000" d="M 395.824219 343.363281 C 394.367188 343.363281 393.113281 342.894531 392.054688 341.957031 C 391 341.011719 390.472656 339.699219 390.472656 338.011719 C 390.472656 336.578125 390.976562 335.347656 391.984375 334.3125 C 392.996094 333.277344 394.242188 332.761719 395.71875 332.761719 C 397.199219 332.761719 398.460938 333.273438 399.503906 334.292969 C 400.550781 335.3125 401.070312 336.554688 401.070312 338.011719 C 401.070312 339.675781 400.550781 340.988281 399.503906 341.933594 C 398.460938 342.886719 397.234375 343.363281 395.824219 343.363281 " fill-opacity="1" fill-rule="nonzero"/><path fill="#000000" d="M 418.398438 343.363281 C 416.941406 343.363281 415.6875 342.894531 414.632812 341.957031 C 413.574219 341.011719 413.042969 339.699219 413.042969 338.011719 C 413.042969 336.578125 413.550781 335.347656 414.5625 334.3125 C 415.570312 333.277344 416.816406 332.761719 418.296875 332.761719 C 419.769531 332.761719 421.035156 333.273438 422.082031 334.292969 C 423.125 335.3125 423.648438 336.554688 423.648438 338.011719 C 423.648438 339.675781 423.125 340.988281 422.082031 341.933594 C 421.035156 342.886719 419.808594 343.363281 418.398438 343.363281 " fill-opacity="1" fill-rule="nonzero"/><path fill="#000000" d="M 440.972656 343.363281 C 439.519531 343.363281 438.261719 342.894531 437.207031 341.957031 C 436.148438 341.011719 435.621094 339.699219 435.621094 338.011719 C 435.621094 336.578125 436.125 335.347656 437.140625 334.3125 C 438.144531 333.277344 439.390625 332.761719 440.867188 332.761719 C 442.347656 332.761719 443.609375 333.273438 444.652344 334.292969 C 445.703125 335.3125 446.222656 336.554688 446.222656 338.011719 C 446.222656 339.675781 445.703125 340.988281 444.652344 341.933594 C 443.609375 342.886719 442.382812 343.363281 440.972656 343.363281 " fill-opacity="1" fill-rule="nonzero"/><path fill="#000000" d="M 83.675781 479.617188 C 75.375 479.617188 68.648438 472.890625 68.648438 464.589844 L 68.648438 428.511719 C 68.648438 420.210938 75.375 413.484375 83.675781 413.484375 C 91.972656 413.484375 98.699219 420.210938 98.699219 428.511719 L 98.699219 464.589844 C 98.699219 472.890625 91.972656 479.617188 83.675781 479.617188 " fill-opacity="1" fill-rule="nonzero"/><path fill="#000000" d="M 137.765625 479.617188 C 129.46875 479.617188 122.742188 472.890625 122.742188 464.589844 L 122.742188 428.511719 C 122.742188 420.210938 129.46875 413.484375 137.765625 413.484375 C 146.066406 413.484375 152.792969 420.210938 152.792969 428.511719 L 152.792969 464.589844 C 152.792969 472.890625 146.066406 479.617188 137.765625 479.617188 " fill-opacity="1" fill-rule="nonzero"/><path fill="#000000" d="M 191.859375 479.617188 C 183.5625 479.617188 176.835938 472.890625 176.835938 464.589844 L 176.835938 428.511719 C 176.835938 420.210938 183.5625 413.484375 191.859375 413.484375 C 200.160156 413.484375 206.886719 420.210938 206.886719 428.511719 L 206.886719 464.589844 C 206.886719 472.890625 200.160156 479.617188 191.859375 479.617188 " fill-opacity="1" fill-rule="nonzero"/><path fill="#000000" d="M 245.953125 479.617188 C 237.652344 479.617188 230.929688 472.890625 230.929688 464.589844 L 230.929688 428.511719 C 230.929688 420.210938 237.652344 413.484375 245.953125 413.484375 C 254.253906 413.484375 260.980469 420.210938 260.980469 428.511719 L 260.980469 464.589844 C 260.980469 472.890625 254.253906 479.617188 245.953125 479.617188 " fill-opacity="1" fill-rule="nonzero"/><path fill="#000000" d="M 300.046875 479.617188 C 291.746094 479.617188 285.023438 472.890625 285.023438 464.589844 L 285.023438 428.511719 C 285.023438 420.210938 291.746094 413.484375 300.046875 413.484375 C 308.347656 413.484375 315.074219 420.210938 315.074219 428.511719 L 315.074219 464.589844 C 315.074219 472.890625 308.347656 479.617188 300.046875 479.617188 " fill-opacity="1" fill-rule="nonzero"/><path fill="#000000" d="M 354.140625 479.617188 C 345.839844 479.617188 339.113281 472.890625 339.113281 464.589844 L 339.113281 428.511719 C 339.113281 420.210938 345.839844 413.484375 354.140625 413.484375 C 362.441406 413.484375 369.167969 420.210938 369.167969 428.511719 L 369.167969 464.589844 C 369.167969 472.890625 362.441406 479.617188 354.140625 479.617188 " fill-opacity="1" fill-rule="nonzero"/><path fill="#000000" d="M 408.234375 479.617188 C 399.933594 479.617188 393.207031 472.890625 393.207031 464.589844 L 393.207031 428.511719 C 393.207031 420.210938 399.933594 413.484375 408.234375 413.484375 C 416.535156 413.484375 423.257812 420.210938 423.257812 428.511719 L 423.257812 464.589844 C 423.257812 472.890625 416.535156 479.617188 408.234375 479.617188 " fill-opacity="1" fill-rule="nonzero"/><path fill="#000000" d="M 462.328125 479.617188 C 454.027344 479.617188 447.300781 472.890625 447.300781 464.589844 L 447.300781 428.511719 C 447.300781 420.210938 454.027344 413.484375 462.328125 413.484375 C 470.625 413.484375 477.351562 420.210938 477.351562 428.511719 L 477.351562 464.589844 C 477.351562 472.890625 470.625 479.617188 462.328125 479.617188 " fill-opacity="1" fill-rule="nonzero"/></svg>